# xmcd
#
# Track frame offsets:
#	150
#	20259
#	35115
#	51534
#	65361
#	86611
#	103477
#	118195
#	134486
#	152725
#
# Disc length: 2260 seconds
# Revision: 0
# Processed by: cddbd v1.5.2PL0 Copyright (c) Steve Scherf et al.
# Submitted via: dBpowerAMP V12.0
#
DISCID=9208d20a
DTITLE=Ruby Lovett - It's A Hard Life
DYEAR=2019
DGENRE=Americana
TTITLE0=It's a  Hard Life
TTITLE1=A Father's Love
TTITLE2=Catfish John
TTITLE3=The Blues You and Me
TTITLE4=Where I'm Standing Today
TTITLE5=Home Sweet Honky Tonk
TTITLE6=Riley Bring Your Fiddle
TTITLE7=Straight From My Heart
TTITLE8=They Don't Know
TTITLE9=Walking On the Moon
EXTD=
EXTT0=
EXTT1=
EXTT2=
EXTT3=
EXTT4=
EXTT5=
EXTT6=
EXTT7=
EXTT8=
EXTT9=
PLAYORDER=
